<svg xmlns="http://www.w3.org/2000/svg" viewBox="-322.25 -48.00 1221.85 1045.33" width="1222" height="1045" role="img" aria-label="مؤسسة فلاح حماد العوفي التجارية — Falah Hamad Al Oufi Trading Est."><title>مؤسسة فلاح حماد العوفي التجارية — Falah Hamad Al Oufi Trading Est.</title><defs><linearGradient id="g_lockup_vertical_dark" gradientUnits="userSpaceOnUse" x1="-274.2" y1="0.0" x2="851.6" y2="784.9"><stop offset="0" stop-color="#A47828"/><stop offset="0.38" stop-color="#E4C476"/><stop offset="0.62" stop-color="#C39A45"/><stop offset="1" stop-color="#A47828"/></linearGradient></defs><path fill="#FFFFFF" d="M70.38 360.09 137.8 353.01C151.46 351.57 163.69 361.48 165.12 375.13L184.49 559.41C185.93 573.06 176.02 585.3 162.37 586.73L94.95 593.82C81.3 595.25 69.06 585.35 67.63 571.69L48.26 387.41C46.83 373.76 56.73 361.53 70.38 360.09ZM469.78 363.33 542.14 381.37C554.25 384.39 561.61 396.65 558.6 408.76L522.51 553.48C519.5 565.58 507.23 572.95 495.12 569.93L422.77 551.89C410.66 548.88 403.29 536.61 406.31 524.5L442.39 379.79C445.41 367.68 457.67 360.31 469.78 363.33ZM74.05 373.34C66.6 374.12 61.2 380.8 61.98 388.24L80.88 568.03C81.66 575.48 88.33 580.88 95.78 580.1L158.7 573.48C166.15 572.7 171.55 566.03 170.77 558.58L151.87 378.79C151.09 371.35 144.42 365.94 136.97 366.73L129.11 367.55L129.76 373.73C130.12 377.15 127.64 380.21 124.23 380.56L89.39 384.23C85.98 384.58 82.92 382.11 82.56 378.69L81.91 372.51ZM255.35 158.18V197.73C209.17 197.73 171.74 235.16 171.74 281.34C171.74 327.51 209.17 364.95 255.35 364.95V404.49C224.8 404.49 196.85 393.37 175.33 374.95L175.24 374.07C173.67 359.13 162.92 347.38 149.2 343.81C138.39 325.5 132.19 304.14 132.19 281.34C132.19 213.32 187.33 158.18 255.35 158.18ZM281.34 320.88H320.88V364.95H379.63C393.36 364.95 404.49 382.65 404.49 404.49H281.34ZM253.09 309.58C253.09 288.99 264.22 272.3 277.95 272.3H403.36C403.36 292.89 392.23 309.58 378.5 309.58ZM202.25 544.59C281.88 580.82 370 588.92 452.89 569.89L485.2 577.94C393.76 615.59 286.48 605.41 202.25 544.59ZM468.69 372.37C460.82 370.41 452.85 375.2 450.88 383.07L442.68 415.96C440.72 423.83 445.51 431.8 453.38 433.77L481.89 440.87C489.76 442.84 497.73 438.05 499.69 430.18L507.89 397.29C509.85 389.42 505.06 381.44 497.19 379.48ZM0 271.17C0 244.57 3.83 218.87 10.96 194.59L26.14 199.05C19.42 221.92 15.82 246.12 15.82 271.17C15.82 308.98 24.04 344.88 38.79 377.17C37.98 380.78 37.74 384.59 38.15 388.48L40.87 414.4C14.97 372.84 0 323.75 0 271.17ZM322.01 158.18H404.49C404.49 180.02 393.36 197.73 379.63 197.73H322.01ZM531.37 194.59C538.5 218.87 542.33 244.57 542.33 271.17C542.33 304.77 536.22 336.94 525.05 366.63L509.59 362.78C520.52 334.34 526.52 303.45 526.52 271.17C526.52 246.12 522.91 221.92 516.19 199.05ZM450.96 414.53C452.2 409.57 457.23 406.55 462.19 407.78C467.15 409.02 470.18 414.05 468.94 419.01C467.7 423.98 462.67 427 457.71 425.76C452.74 424.53 449.72 419.5 450.96 414.53ZM478.36 407.39C479.6 402.42 484.62 399.4 489.59 400.64C494.55 401.88 497.57 406.91 496.34 411.87C495.1 416.84 490.07 419.86 485.11 418.62C480.14 417.38 477.12 412.35 478.36 407.39ZM457.79 387.12C459.03 382.16 464.06 379.14 469.02 380.38C473.99 381.61 477.01 386.64 475.77 391.61C474.53 396.57 469.51 399.59 464.54 398.36C459.58 397.12 456.55 392.09 457.79 387.12ZM533.18 552.73 536.22 540.56C550.28 533.74 564.03 526.05 577.36 517.48C563.58 530.83 548.77 542.59 533.18 552.73ZM112.47 568.12 139.89 565.24C141 565.12 142 565.93 142.12 567.05C142.24 568.16 141.43 569.16 140.31 569.28L112.89 572.16C111.78 572.28 110.78 571.47 110.66 570.35C110.54 569.24 111.35 568.24 112.47 568.12ZM97.34 372.26C96.34 372.36 95.62 373.25 95.73 374.24C95.83 375.24 96.72 375.96 97.71 375.85L114.35 374.1C115.34 374 116.06 373.11 115.95 372.12C115.85 371.12 114.96 370.4 113.97 370.51ZM489.25 390.31C489.86 387.89 492.31 386.42 494.73 387.02C497.15 387.62 498.63 390.08 498.02 392.5C497.42 394.92 494.97 396.39 492.55 395.79C490.12 395.19 488.65 392.73 489.25 390.31ZM480.07 427.61C480.58 425.55 482.67 424.3 484.73 424.81C486.78 425.33 488.04 427.41 487.52 429.47C487.01 431.53 484.93 432.78 482.87 432.27C480.81 431.76 479.56 429.67 480.07 427.61Z"/><path fill="url(#g_lockup_vertical_dark)" d="M511.19 183.81C465.97 97.39 375.46 38.42 271.17 38.42C166.88 38.42 76.36 97.39 31.15 183.81L16.28 178.4C54.17 74.32 153.99 0 271.17 0C388.34 0 488.16 74.32 526.05 178.4ZM202.25 96.04H320.88V259.87H281.34V134.45H227.1C213.37 134.45 202.25 117.25 202.25 96.04ZM325.16 771.46H848.72C850.32 771.46 851.6 772.75 851.6 774.34C851.6 775.93 850.32 777.22 848.72 777.22H325.16C323.57 777.22 322.28 775.93 322.28 774.34C322.28 772.75 323.57 771.46 325.16 771.46ZM-271.37 771.46H252.2C253.79 771.46 255.08 772.75 255.08 774.34C255.08 775.93 253.79 777.22 252.2 777.22H-271.37C-272.96 777.22 -274.25 775.93 -274.25 774.34C-274.25 772.75 -272.96 771.46 -271.37 771.46ZM192.08 514.09C264.04 531.68 340 521.17 404.49 484.71C348.98 542.4 261.17 554.54 192.08 514.09ZM281.34 433.87H320.88V473.41H281.34ZM278.12 774.34C278.12 768.51 282.85 763.78 288.68 763.78C294.51 763.78 299.24 768.51 299.24 774.34C299.24 780.17 294.51 784.9 288.68 784.9C282.85 784.9 278.12 780.17 278.12 774.34Z"/><path fill="#FFFFFF" d="M600.57 707.42Q594.52 707.42 590.37 705.48Q586.22 703.53 584.17 699.56Q582.11 695.6 582.11 689.61Q582.11 683.55 584.17 679.44Q586.22 675.33 590.37 673.24Q594.52 671.15 600.57 671.15H617.38V697.98H633.03V678.58H644.06V697.98H649.18Q651.42 697.98 652.61 697.29Q653.8 696.61 654.26 694.48Q654.73 692.35 654.73 688.02V674.97H665.77V688.02Q665.77 693 664.76 696.68Q665.48 697.11 666.2 697.4Q667.5 697.98 668.79 697.98H676.58V687.66Q676.58 686.58 676.33 684.24Q676.08 681.89 675.61 678.9Q675.14 675.91 674.56 672.81L685.38 671.15Q685.89 673.74 686.39 676.99Q686.9 680.24 687.26 683.12Q687.62 686 687.62 687.66V697.98H703.27V678.58H714.3V697.98H719.42Q721.65 697.98 722.84 697.29Q724.03 696.61 724.5 694.48Q724.97 692.35 724.97 688.02V674.97H736.01V688.02Q736.01 693 735 696.68Q735.72 697.11 736.44 697.4Q737.74 697.98 739.03 697.98H746.82V687.66Q746.82 686.58 746.57 684.24Q746.32 681.89 745.85 678.9Q745.38 675.91 744.8 672.81L755.62 671.15Q756.13 673.74 756.63 676.99Q757.14 680.24 757.5 683.12Q757.86 686 757.86 687.66V707.42H739.03Q735.86 707.42 732.83 706.2Q731.25 705.62 729.8 704.75Q729.3 705.11 728.79 705.4Q725.12 707.42 719.42 707.42H668.79Q665.62 707.42 662.59 706.2Q661.01 705.62 659.56 704.75Q659.06 705.11 658.55 705.4Q654.88 707.42 649.18 707.42ZM129.52 707.42V709.59Q129.52 714.63 127 718.35Q124.48 722.06 119.93 724.04Q115.39 726.03 109.26 726.03Q106.52 726.03 103.56 725.63Q100.61 725.23 97.36 724.51L99.02 715.72Q102.55 716.15 105.04 716.36Q107.53 716.58 109.26 716.58Q114.16 716.58 116.33 714.85Q118.49 713.12 118.49 709.59V707.42H112.72Q106.66 707.42 102.52 705.48Q98.37 703.53 96.31 699.56Q94.26 695.6 94.26 689.61Q94.26 683.55 96.31 679.44Q98.37 675.33 102.52 673.24Q106.66 671.15 112.72 671.15H129.52V697.98H150.51Q148.63 696.17 147.12 694.23Q144.23 690.69 142.72 687.12Q141.21 683.55 141.21 680.6V676.56Q144.31 674.83 147.91 673.6Q151.52 672.37 155.12 671.76Q158.73 671.15 161.76 671.15Q164.79 671.15 168.36 671.76Q171.93 672.37 175.57 673.6Q179.21 674.83 182.31 676.56V680.6Q182.31 683.55 180.8 687.12Q179.28 690.69 176.47 694.23Q174.88 696.17 173.01 697.98H194.07V656.73H205.1V707.42H173.3Q167.67 707.42 162.77 705.62Q162.26 705.4 161.76 705.26Q161.25 705.4 160.75 705.62Q155.84 707.42 150.22 707.42ZM800.84 707.42V709.59Q800.84 714.63 798.31 718.35Q795.79 722.06 791.25 724.04Q786.7 726.03 780.57 726.03Q777.83 726.03 774.88 725.63Q771.92 725.23 768.67 724.51L770.33 715.72Q773.87 716.15 776.35 716.36Q778.84 716.58 780.57 716.58Q785.48 716.58 787.64 714.85Q789.8 713.12 789.8 709.59V707.42H784.03Q777.98 707.42 773.83 705.48Q769.68 703.53 767.63 699.56Q765.57 695.6 765.57 689.61Q765.57 683.55 767.63 679.44Q769.68 675.33 773.83 673.24Q777.98 671.15 784.03 671.15H800.84V697.98H816.27Q816.27 697.47 816.2 696.89Q815.91 693.79 815.91 690.26Q815.91 686.73 816.23 683.37Q816.56 680.02 817.06 677.28Q817.57 674.54 818 672.95Q819.73 672.3 823.52 671.65Q827.3 671 831.85 671Q838.48 671 842.84 672.81Q847.21 674.61 849.41 678.65Q851.6 682.69 851.6 689.54V707.42ZM291.64 707.42V656.73H302.6V697.98H318.54Q318.54 697.47 318.46 696.89Q318.17 693.79 318.17 690.26Q318.17 686.73 318.5 683.37Q318.82 680.02 319.33 677.28Q319.83 674.54 320.27 672.95Q322 672.3 325.78 671.65Q329.57 671 334.11 671Q340.75 671 345.11 672.81Q349.47 674.61 351.67 678.65Q353.87 682.69 353.87 689.54V697.98H388.27V689.25Q388.27 685.07 385.67 682.87Q383.08 680.67 377.31 680.67Q375.72 680.67 373.05 680.88Q370.39 681.1 367.21 681.53L366.2 672.88Q369.23 672.16 372.37 671.65Q375.51 671.15 378.46 671.15Q384.52 671.15 389.21 673.35Q393.89 675.55 396.6 679.55Q399.3 683.55 399.3 689.25V707.42ZM-167.37 707.42V656.73H-156.41V697.98H-121.51V689.25Q-121.51 685.07 -124.1 682.87Q-126.7 680.67 -132.47 680.67Q-134.06 680.67 -136.72 680.88Q-139.39 681.1 -142.56 681.53L-143.57 672.88Q-140.55 672.16 -137.41 671.65Q-134.27 671.15 -131.31 671.15Q-125.26 671.15 -120.57 673.35Q-115.88 675.55 -113.18 679.55Q-110.47 683.55 -110.47 689.25V697.98H-90.21V671.15H-79.18V697.98H-61.8V656.73H-50.76V707.42ZM467.02 707.42V697.98H476.54V666.75H487.57V697.98H498.97V656.73H510V697.98H524.78Q523.41 694.44 523.41 689.32Q523.41 683.48 525.47 679.44Q527.52 675.4 531.67 673.28Q535.82 671.15 541.87 671.15H558.68V707.42ZM18.97 725.31Q14.14 725.31 9.99 723.94Q5.85 722.57 2.78 720.11Q-0.28 717.66 -2.01 714.38Q-3.74 711.1 -3.74 707.28Q-3.74 705.91 -3.53 703.82Q-3.31 701.73 -2.95 698.98Q-2.59 696.24 -2.09 693.07L8.8 694.51Q8.08 698.98 7.69 702.34Q7.29 705.69 7.29 707.13Q7.29 709.66 8.73 711.64Q10.17 713.62 12.81 714.74Q15.44 715.86 18.97 715.86H39.38Q43.85 715.86 45.94 713.7Q48.03 711.53 48.03 707.42H45.22Q41.62 707.42 38.37 706.59Q35.13 705.76 32.31 703.82L38.59 696.03Q39.74 696.82 40.64 697.25Q41.54 697.69 42.63 697.83Q43.71 697.98 45.22 697.98H52.58Q51.21 694.44 51.21 689.32Q51.21 683.48 53.26 679.44Q55.32 675.4 59.46 673.28Q63.61 671.15 69.67 671.15H86.47V707.42H59.07Q59.07 712.61 56.62 716.65Q54.16 720.69 49.76 723Q45.37 725.31 39.38 725.31ZM-255.78 707.42Q-261.84 707.42 -265.99 705.48Q-270.14 703.53 -272.19 699.56Q-274.25 695.6 -274.25 689.61Q-274.25 683.55 -272.19 679.44Q-270.14 675.33 -265.99 673.24Q-261.84 671.15 -255.78 671.15H-238.98V697.98H-218.79V671.15H-207.76V707.42ZM452.67 720.62 454.33 729.42Q451.08 730.07 448.12 730.46Q445.17 730.86 442.43 730.86Q436.37 730.86 431.79 728.88Q427.21 726.89 424.69 723.22Q422.16 719.54 422.16 714.42Q422.16 709.3 424.69 705.62Q427.21 701.94 431.79 699.96Q436.37 697.98 442.43 697.98H448.77V689.25Q448.77 685.07 446.14 682.87Q443.51 680.67 437.74 680.67Q436.01 680.67 433.2 680.92Q430.38 681.17 426.85 681.68L425.77 673.1Q429.16 672.23 432.44 671.69Q435.72 671.15 438.89 671.15Q445.02 671.15 449.71 673.35Q454.4 675.55 457.1 679.55Q459.81 683.55 459.81 689.25V707.42H442.43Q437.6 707.42 435.4 709.15Q433.2 710.88 433.2 714.42Q433.2 717.95 435.4 719.68Q437.6 721.41 442.43 721.41Q444.16 721.41 446.68 721.23Q449.21 721.05 452.67 720.62ZM299.89 949.33Q295.95 949.33 292.6 948.05Q289.25 946.76 286.8 944.44Q284.36 942.11 283 938.97Q281.65 935.84 281.65 932.13Q281.65 928.43 283 925.29Q284.36 922.16 286.83 919.83Q289.3 917.5 292.62 916.22Q295.95 914.94 299.84 914.94Q303.79 914.94 307.09 916.22Q310.39 917.5 312.84 919.83Q315.28 922.16 316.66 925.27Q318.04 928.38 318.04 932.13Q318.04 935.84 316.66 939Q315.28 942.16 312.84 944.46Q310.39 946.76 307.09 948.05Q303.79 949.33 299.89 949.33ZM544.11 948.76V915.51H559.22Q564.63 915.51 568.76 917.57Q572.9 919.64 575.23 923.34Q577.55 927.05 577.55 932.13Q577.55 937.17 575.23 940.9Q572.9 944.63 568.76 946.69Q564.63 948.76 559.22 948.76ZM138.28 948.76V915.51H153.39Q158.8 915.51 162.94 917.57Q167.07 919.64 169.4 923.34Q171.72 927.05 171.72 932.13Q171.72 937.17 169.4 940.9Q167.07 944.63 162.94 946.69Q158.8 948.76 153.39 948.76ZM467.11 948.76V915.51H481.31Q488.24 915.51 492.09 918.71Q495.94 921.92 495.94 927.57Q495.94 931.28 494.18 933.96Q492.43 936.65 489.2 938.07Q489.15 938.07 489.15 938.12L496.56 948.76H488.24L481.88 939.5H474.8V948.76ZM50.83 948.76V915.51H57.19L69.64 936.17L81.89 915.51H88.21L88.31 948.76H81.09L81.04 928.81L71.25 945.24H67.78L58.05 929.24V948.76ZM604.63 948.76V915.51H611L627.53 935.7V915.51H635.13V948.76H628.81L612.23 928.57V948.76ZM252.12 707.42V697.98H270.87V693.29Q270.87 688.31 269.86 685.57Q268.85 682.83 266.54 681.71Q264.23 680.6 260.19 680.6H254.35V671.15H260.19Q267.19 671.15 272.02 673.46Q276.85 675.76 279.38 680.63Q281.9 685.5 281.9 693.29V707.42ZM-195.06 726.03Q-195.86 726.03 -197.01 725.92Q-198.16 725.81 -199.39 725.74L-199.03 716.44Q-197.88 716.44 -196.79 716.51Q-195.71 716.58 -195.21 716.58Q-192.54 716.58 -190.99 714.49Q-189.44 712.4 -189.44 708.43V671.15H-178.41V708.43Q-178.41 713.55 -180.5 717.55Q-182.59 721.56 -186.34 723.79Q-190.09 726.03 -195.06 726.03ZM-130.78 948.76 -115.96 915.51H-108.36L-93.49 948.76H-101.57L-104.51 941.63H-119.95L-122.9 948.76ZM192.29 948.76 207.11 915.51H214.72L229.58 948.76H221.51L218.56 941.63H203.12L200.18 948.76ZM-201.75 948.76 -186.93 915.51H-179.33L-164.46 948.76H-172.54L-175.48 941.63H-190.92L-193.87 948.76ZM94.67 948.76 109.49 915.51H117.09L131.96 948.76H123.89L120.94 941.63H105.5L102.56 948.76ZM500.5 948.76 515.32 915.51H522.92L537.79 948.76H529.72L526.77 941.63H511.33L508.39 948.76ZM7.22 948.76 22.04 915.51H29.64L44.51 948.76H36.43L33.49 941.63H18.05L15.1 948.76ZM-64.37 948.76V935.13H-79.48V948.76H-87.17V915.51H-79.48V928.62H-64.37V915.51H-56.68V948.76ZM-6.84 948.76V935.13H-21.95V948.76H-29.65V915.51H-21.95V928.62H-6.84V915.51H0.85V948.76ZM701.63 948.76V915.51H726.76V921.68H709.28V928.9H724.72V934.89H709.28V942.58H727.38V948.76ZM661.92 949.33Q657.98 949.33 654.68 948.07Q651.37 946.81 648.93 944.48Q646.48 942.16 645.13 939.02Q643.77 935.89 643.77 932.13Q643.77 928.38 645.13 925.25Q646.48 922.11 648.95 919.78Q651.42 917.45 654.75 916.2Q658.07 914.94 662.06 914.94Q666.48 914.94 670.02 916.41Q673.56 917.88 675.98 920.68L671.04 925.25Q669.24 923.34 667.1 922.42Q664.96 921.49 662.44 921.49Q660.02 921.49 658.03 922.25Q656.03 923.01 654.58 924.44Q653.13 925.86 652.35 927.81Q651.56 929.76 651.56 932.13Q651.56 934.46 652.35 936.41Q653.13 938.36 654.58 939.81Q656.03 941.25 658 942.01Q659.97 942.77 662.35 942.77Q664.63 942.77 666.81 942.01Q667.57 941.78 668.33 941.4V931.61H675.36V945.1Q672.66 947.14 669.07 948.24Q665.48 949.33 661.92 949.33ZM-39.59 707.42V656.73H-28.62V707.42ZM216.28 707.42V656.73H227.24V707.42ZM341.46 949.33Q334.38 949.33 330.39 945.39Q326.4 941.44 326.4 934.13V915.51H334.09V933.84Q334.09 938.59 336.04 940.68Q337.99 942.77 341.5 942.77Q345.02 942.77 346.97 940.68Q348.92 938.59 348.92 933.84V915.51H356.52V934.13Q356.52 941.44 352.53 945.39Q348.53 949.33 341.46 949.33ZM747.29 949.33Q743.3 949.33 739.64 948.26Q735.98 947.19 733.75 945.48L736.36 939.69Q738.5 941.21 741.42 942.18Q744.34 943.15 747.33 943.15Q749.61 943.15 751.01 942.7Q752.42 942.25 753.08 941.44Q753.75 940.64 753.75 939.59Q753.75 938.26 752.7 937.48Q751.66 936.69 749.95 936.19Q748.24 935.7 746.17 935.24Q744.1 934.79 742.04 934.13Q739.97 933.46 738.26 932.42Q736.55 931.37 735.48 929.66Q734.41 927.95 734.41 925.29Q734.41 922.44 735.96 920.09Q737.5 917.74 740.61 916.34Q743.72 914.94 748.43 914.94Q751.56 914.94 754.6 915.67Q757.64 916.41 759.97 917.88L757.59 923.73Q755.27 922.39 752.94 921.75Q750.61 921.11 748.38 921.11Q746.15 921.11 744.72 921.63Q743.3 922.16 742.68 922.99Q742.06 923.82 742.06 924.91Q742.06 926.2 743.11 926.98Q744.15 927.76 745.86 928.24Q747.57 928.71 749.64 929.19Q751.7 929.66 753.77 930.28Q755.84 930.9 757.55 931.94Q759.26 932.99 760.33 934.7Q761.39 936.41 761.39 939.02Q761.39 941.82 759.83 944.15Q758.26 946.48 755.15 947.9Q752.04 949.33 747.29 949.33ZM-229.21 948.76V915.51H-204.08V921.68H-221.52V930.47H-206.12V936.65H-221.52V948.76ZM366.97 948.76V915.51H392.1V921.68H374.66V930.47H390.05V936.65H374.66V948.76ZM441.79 948.76V921.78H431.14V915.51H460.12V921.78H449.48V948.76ZM775.93 948.76V921.78H765.29V915.51H794.27V921.78H783.63V948.76ZM-158.15 948.76V915.51H-150.45V942.49H-133.78V948.76ZM235.9 948.76V915.51H243.6V942.49H260.27V948.76ZM299.84 942.77Q302.08 942.77 303.95 942.01Q305.83 941.25 307.25 939.83Q308.68 938.4 309.46 936.46Q310.25 934.51 310.25 932.13Q310.25 929.76 309.46 927.81Q308.68 925.86 307.28 924.44Q305.88 923.01 303.98 922.25Q302.08 921.49 299.84 921.49Q297.61 921.49 295.73 922.25Q293.86 923.01 292.43 924.44Q291.01 925.86 290.22 927.81Q289.44 929.76 289.44 932.13Q289.44 934.46 290.22 936.43Q291.01 938.4 292.41 939.83Q293.81 941.25 295.71 942.01Q297.61 942.77 299.84 942.77ZM145.98 942.44H153.01Q156.33 942.44 158.78 941.18Q161.23 939.92 162.58 937.6Q163.93 935.27 163.93 932.13Q163.93 928.95 162.58 926.65Q161.23 924.34 158.78 923.08Q156.33 921.82 153.01 921.82H145.98ZM551.81 942.44H558.84Q562.16 942.44 564.61 941.18Q567.05 939.92 568.41 937.6Q569.76 935.27 569.76 932.13Q569.76 928.95 568.41 926.65Q567.05 924.34 564.61 923.08Q562.16 921.82 558.84 921.82H551.81ZM400.17 948.76V915.51H407.87V948.76ZM586.2 948.76V915.51H593.89V948.76ZM329.71 697.98H342.84V689.47Q342.84 685.93 342.08 683.99Q341.32 682.04 339.41 681.24Q337.5 680.45 334.11 680.45Q331.95 680.45 329.86 680.67Q329.57 682.69 329.42 684.85Q329.14 687.66 329.14 690.26Q329.14 692.64 329.42 695.31Q329.5 696.75 329.71 697.98ZM827.45 697.98H840.57V689.47Q840.57 685.93 839.81 683.99Q839.06 682.04 837.15 681.24Q835.24 680.45 831.85 680.45Q829.68 680.45 827.59 680.67Q827.3 682.69 827.16 684.85Q826.87 687.66 826.87 690.26Q826.87 692.64 827.16 695.31Q827.23 696.75 827.45 697.98ZM69.67 697.98H75.44V680.6H69.67Q66.86 680.6 65.23 681.35Q63.61 682.11 62.93 683.99Q62.24 685.86 62.24 689.32Q62.24 693.14 62.93 694.98Q63.61 696.82 65.23 697.4Q66.86 697.98 69.67 697.98ZM541.87 697.98H547.64V680.6H541.87Q539.06 680.6 537.44 681.35Q535.82 682.11 535.13 683.99Q534.45 685.86 534.45 689.32Q534.45 693.14 535.13 694.98Q535.82 696.82 537.44 697.4Q539.06 697.98 541.87 697.98ZM-250.02 697.98V680.6H-255.78Q-258.24 680.6 -259.89 681.21Q-261.55 681.82 -262.38 683.73Q-263.21 685.64 -263.21 689.61Q-263.21 693.29 -262.49 695.09Q-261.77 696.89 -260.11 697.43Q-258.45 697.98 -255.78 697.98ZM118.49 680.6H112.72Q110.27 680.6 108.61 681.21Q106.95 681.82 106.12 683.73Q105.29 685.64 105.29 689.61Q105.29 693.29 106.01 695.09Q106.73 696.89 108.39 697.43Q110.05 697.98 112.72 697.98H118.49ZM789.8 680.6H784.03Q781.58 680.6 779.92 681.21Q778.26 681.82 777.44 683.73Q776.61 685.64 776.61 689.61Q776.61 693.29 777.33 695.09Q778.05 696.89 779.71 697.43Q781.37 697.98 784.03 697.98H789.8ZM606.34 697.98V680.6H600.57Q598.12 680.6 596.46 681.21Q594.81 681.82 593.98 683.73Q593.15 685.64 593.15 689.61Q593.15 693.29 593.87 695.09Q594.59 696.89 596.25 697.43Q597.91 697.98 600.57 697.98ZM775.24 664.51V658.89H777.11Q776.89 658.02 776.89 657.16Q776.89 654.49 778.26 652.44Q779.63 650.38 781.87 649.19Q784.11 648 786.77 648Q788.29 648 789.8 648.4Q791.32 648.79 792.33 649.51L789.73 654.35Q789.08 653.99 788.4 653.84Q787.71 653.7 787.06 653.7Q785.33 653.7 784.39 654.63Q783.46 655.57 783.46 657.01Q783.46 657.88 783.82 658.67Q783.89 658.82 783.89 658.89H793.84V664.51ZM161.76 695.6Q162.98 694.8 164.07 693.86Q166.23 691.99 167.85 689.72Q169.47 687.45 170.41 685.07Q170.92 683.62 171.13 682.25Q170.05 681.89 169.04 681.61Q165.15 680.6 161.76 680.6Q158.37 680.6 154.55 681.61Q153.47 681.89 152.38 682.25Q152.6 683.62 153.18 685.07Q154.04 687.45 155.66 689.72Q157.29 691.99 159.45 693.86Q160.53 694.8 161.76 695.6ZM474.8 933.37H481.07Q484.63 933.37 486.39 931.82Q488.15 930.28 488.15 927.57Q488.15 924.82 486.39 923.3Q484.63 921.78 481.07 921.78H474.8ZM537.33 664.44V655.64H548.44V664.44ZM65.12 664.44V655.64H76.23V664.44ZM-134.99 723.58V714.78H-123.89V723.58ZM-267.76 664.44V655.64H-257.23V664.44ZM-253.55 664.44V655.64H-243.02V664.44ZM-96.99 664.44V655.64H-86.46V664.44ZM-82.78 664.44V655.64H-72.25V664.44ZM-214.75 723.58V714.78H-204.22V723.58ZM15.37 740.74V731.94H25.89V740.74ZM29.57 740.74V731.94H40.1V740.74ZM588.6 664.44V655.64H599.13V664.44ZM602.81 664.44V655.64H613.34V664.44ZM-228.96 723.58V714.78H-218.43V723.58ZM801.96 949.14Q800.06 949.14 798.71 947.83Q797.36 946.53 797.36 944.48Q797.36 942.44 798.71 941.18Q800.06 939.92 801.96 939.92Q803.91 939.92 805.24 941.18Q806.57 942.44 806.57 944.48Q806.57 946.53 805.24 947.83Q803.91 949.14 801.96 949.14ZM-177.91 935.79 -183.18 923.06 -188.45 935.79ZM-106.94 935.79 -112.21 923.06 -117.48 935.79ZM31.06 935.79 25.79 923.06 20.52 935.79ZM118.52 935.79 113.25 923.06 107.97 935.79ZM216.14 935.79 210.87 923.06 205.59 935.79ZM524.35 935.79 519.08 923.06 513.8 935.79Z"/><path fill="#E4C476" d="M140.36 853.38H148.63Q146.3 850.26 146.3 846.27Q146.3 842.65 148.08 840.14Q149.61 834.5 153.91 831.5Q157.4 829.11 161.81 829.11Q168.31 829.11 172.54 833.52Q176.53 837.69 176.53 844.25V847.25Q176.53 853.38 182.47 853.38H191.24Q203.68 853.38 210.92 845.17Q205.83 835.79 198.53 835.79Q193.57 835.79 188.3 841.06V836.16Q193.45 830.95 199.21 830.95Q203.93 830.95 208.34 834.35Q212.76 837.75 216.13 844.06V846.76Q207.12 858.35 191.18 858.35H181.86Q176.71 858.35 173.89 855.16Q170.89 858.35 165.74 858.35H159.12Q157.03 858.35 155.19 857.74Q153.29 858.35 151.27 858.35H139.75Q136.62 858.35 134.35 857.12Q133.8 863.19 130.12 866.81Q126.75 870.12 121.66 870.12Q117.98 870.12 114.49 868.28V863.68Q117.61 865.4 120.74 865.4Q124.66 865.4 126.87 862.76Q129.08 860.13 129.08 855.47V834.56L134.35 831.74V831.8L134.41 831.74V848.48Q134.96 853.38 140.36 853.38ZM662.35 858.35Q657.02 858.35 654.13 854.92Q651.68 851.97 651.68 847.44V821.63L656.95 818.81V847.25Q656.95 853.38 662.96 853.38H671.73Q684.17 853.38 691.41 845.17Q686.32 835.79 679.02 835.79Q674.06 835.79 668.79 841.06V836.16Q673.94 830.95 679.7 830.95Q684.42 830.95 688.83 834.35Q693.25 837.75 696.62 844.06V846.76Q694.72 849.15 693 850.62Q696.31 853.38 703.3 853.38H707.65Q713.66 853.38 713.66 847.25V834.56L718.93 831.74V847.25Q718.93 853.38 724.94 853.38H728.56Q734.93 853.38 734.93 846.7V821.63L740.26 818.81V846.76Q740.26 850.32 741.64 851.85Q743.02 853.38 746.21 853.38H749.83Q756.2 853.38 756.2 846.7V821.63L761.54 818.81V846.76Q761.54 852.22 758.29 855.41Q755.22 858.35 750.26 858.35H745.6Q740.33 858.35 737.45 854.98Q734.38 858.35 728.99 858.35H724.33Q719.24 858.35 716.3 855.1Q713.35 858.35 708.27 858.35H703.24Q698.27 858.35 695.27 857.21Q692.27 856.08 689.69 853.2Q681.97 858.35 671.67 858.35ZM308.14 856.88Q302.32 860.37 301.09 861.66Q298.64 864.05 298.64 867.6Q298.64 871.53 301.34 873.95Q304.04 876.37 308.33 876.37Q315.07 876.31 319.61 873.12V878.09Q314.33 881.34 308.08 881.34Q301.28 881.34 297.17 876.86Q293.61 873.06 293.61 867.48Q293.61 863.31 295.82 860.4Q298.03 857.49 303.61 854.3Q298.58 850.62 293.31 842.78V840.08Q296.31 835.79 300.36 833.37Q304.4 830.95 308.57 830.95Q312.68 830.95 316.79 833.43Q320.89 835.91 323.84 840.2V842.78Q320.71 847.5 313.48 853.26Q314.83 853.38 315.62 853.38H332.24Q338.24 853.38 338.24 847.25V834.56L343.51 831.74V847.25Q343.51 853.38 349.52 853.38H353.94Q359.94 853.38 359.94 847.25V834.56L365.22 831.74V847.44Q365.22 852.65 362.09 855.65Q359.21 858.35 354.55 858.35H348.91Q343.82 858.35 340.88 855.1Q337.94 858.35 332.85 858.35H315.19Q311.58 858.35 308.14 856.88ZM499.28 858.35Q493.95 858.35 491.07 854.92Q488.62 851.97 488.62 847.44V821.63L493.89 818.81V847.25Q493.89 853.38 499.9 853.38H517.31Q512.89 849.77 508.23 842.78V840.08Q511.18 835.85 515.25 833.4Q519.33 830.95 523.44 830.95Q527.55 830.95 531.65 833.43Q535.76 835.91 538.76 840.2V842.78Q534.1 849.77 529.63 853.38H546.3Q552.68 853.38 552.68 846.7V821.63L558.01 818.81V846.76Q558.01 852.22 554.76 855.41Q551.7 858.35 546.73 858.35H530.06Q526.75 858.35 523.5 857.06Q520.25 858.35 516.88 858.35ZM-57.71 853.38H-53.3Q-47.29 853.38 -47.29 847.25V834.56L-42.02 831.74V847.25Q-42.02 853.38 -36.01 853.38H-19.21Q-13.33 853.38 -13.33 847.19V846.64Q-13.33 842.04 -16.88 839.65Q-19.7 837.69 -23.81 837.69Q-27.06 837.69 -30.31 838.92V833.7L-16.88 818.81H-11.49L-23.56 832.42H-23.2Q-16.21 832.42 -11.92 836.65Q-8.06 840.57 -8.06 846.58V847.25Q-8.06 853.38 -2.11 853.38H0.96Q7.33 853.38 7.33 846.7V821.63L12.66 818.81V846.76Q12.66 852.22 9.42 855.41Q6.35 858.35 1.39 858.35H-2.66Q-7.81 858.35 -10.69 855.16Q-13.57 858.35 -18.72 858.35H-36.62Q-41.71 858.35 -44.65 855.1Q-47.6 858.35 -52.68 858.35H-58.32Q-61.45 858.35 -63.72 857.12Q-64.27 863.19 -67.95 866.81Q-71.32 870.12 -76.41 870.12Q-80.09 870.12 -83.58 868.28V863.68Q-80.45 865.4 -77.33 865.4Q-73.4 865.4 -71.2 862.76Q-68.99 860.13 -68.99 855.47V834.56L-63.72 831.74V831.8L-63.66 831.74V848.48Q-63.11 853.38 -57.71 853.38ZM445.89 853.38H450.3Q456.31 853.38 456.31 847.25V841.74Q456.31 836.4 459.5 833.46Q462.32 830.95 466.86 830.95Q472.68 830.95 475.81 835.24Q478.5 838.85 478.5 844.68Q478.5 851.3 475.07 855.04Q472.07 858.35 467.22 858.35Q461.71 858.35 458.82 855.28Q455.88 858.35 450.92 858.35H445.28Q438.96 858.35 436.2 853.69Q433.26 856.51 428.91 856.51Q423.51 856.51 420.33 852.46Q417.69 849.03 417.69 844.06Q417.69 838.12 421.31 834.5Q424.37 831.38 428.79 831.38Q432.16 831.38 434.61 833.09V830.46L439.94 827.64V847.25Q439.94 853.38 445.89 853.38ZM-155.98 853.38H-151.56Q-145.56 853.38 -145.56 847.25V834.56L-140.28 831.74V847.25Q-140.28 853.38 -134.28 853.38H-129.86Q-123.86 853.38 -123.86 847.25V834.56L-118.58 831.74V847.44Q-118.58 852.65 -121.71 855.65Q-124.59 858.35 -129.25 858.35H-134.89Q-139.98 858.35 -142.92 855.1Q-145.86 858.35 -150.95 858.35H-156.59Q-162.91 858.35 -165.66 853.69Q-168.61 856.51 -172.96 856.51Q-178.35 856.51 -181.54 852.46Q-184.18 849.03 -184.18 844.06Q-184.18 838.12 -180.56 834.5Q-177.5 831.38 -173.08 831.38Q-169.71 831.38 -167.26 833.09V830.46L-161.92 827.64V847.25Q-161.92 853.38 -155.98 853.38ZM-92.47 856.39Q-94.8 857.31 -98.17 857.31Q-103.63 857.31 -106.75 853.2Q-109.39 849.7 -109.39 844.43Q-109.39 837.93 -105.89 834.26Q-102.77 830.95 -97.68 830.95Q-92.47 830.95 -89.65 834.2Q-87.14 837.08 -87.14 841.74V855.1Q-87.14 862.03 -90.75 866.07Q-94.19 869.87 -99.89 869.87Q-103.69 869.87 -107.06 868.1V863.44Q-103.81 865.15 -100.62 865.15Q-97.01 865.15 -94.86 862.85Q-92.71 860.56 -92.47 856.39ZM391.33 856.39Q389 857.31 385.63 857.31Q380.17 857.31 377.05 853.2Q374.41 849.7 374.41 844.43Q374.41 837.93 377.91 834.26Q381.03 830.95 386.12 830.95Q391.33 830.95 394.15 834.2Q396.66 837.08 396.66 841.74V855.1Q396.66 862.03 393.05 866.07Q389.61 869.87 383.91 869.87Q380.11 869.87 376.74 868.1V863.44Q379.99 865.15 383.18 865.15Q386.79 865.15 388.94 862.85Q391.09 860.56 391.33 856.39ZM103.76 858.35Q98.18 858.35 95.06 854.61Q92.36 851.36 92.36 846.33Q92.36 840.88 95.39 836.86Q98.43 832.85 104.07 830.95Q110.01 832.97 113.02 837.32Q115.71 841.18 115.71 846.33Q115.71 852.16 112.28 855.47Q109.22 858.35 104.37 858.35ZM610 858.35Q604.42 858.35 601.29 854.61Q598.59 851.36 598.59 846.33Q598.59 840.88 601.63 836.86Q604.66 832.85 610.3 830.95Q616.25 832.97 619.25 837.32Q621.95 841.18 621.95 846.33Q621.95 852.16 618.52 855.47Q615.45 858.35 610.61 858.35ZM247.45 821.63 252.79 818.81V846.76Q252.79 852.22 249.54 855.41Q246.47 858.35 241.51 858.35H220.42L222.99 853.38H231.94V829.6L237.22 826.78V853.38H241.08Q247.45 853.38 247.45 846.7ZM46.44 821.63 51.78 818.81V846.76Q51.78 852.22 48.53 855.41Q45.46 858.35 40.5 858.35H19.41L21.98 853.38H30.93V829.6L36.21 826.78V853.38H40.07Q46.44 853.38 46.44 846.7ZM640.65 855.1Q640.65 861.97 637.03 866.13Q633.6 870.12 627.9 870.12Q624.22 870.12 620.72 868.28V863.68Q623.85 865.4 626.98 865.4Q630.9 865.4 633.11 862.76Q635.32 860.13 635.32 855.47V834.56L640.65 831.74ZM513.14 841.49Q518.78 849.21 523.5 851.67Q528.22 849.15 533.86 841.43Q529.26 835.85 523.44 835.79Q517.61 835.79 513.14 841.49ZM569.05 858.35V821.63L574.32 818.81V858.35ZM263.82 858.35V821.63L269.09 818.81V858.35ZM62.81 858.35V821.63L68.08 818.81V858.35ZM298.21 841.49Q303.73 849.03 308.27 851.48Q314.21 847.44 318.93 841.37Q314.4 835.85 308.57 835.79Q302.69 835.79 298.21 841.49ZM461.58 847.68Q461.58 853.38 467.16 853.38Q470.04 853.38 471.67 851.05Q473.29 848.72 473.29 844.56Q473.29 840.45 471.58 838.15Q469.86 835.85 466.86 835.85Q461.58 835.85 461.58 841.98ZM103.58 853.38H104.5Q107.25 853.38 108.88 851.48Q110.5 849.58 110.5 846.39Q110.5 839.04 104.07 835.85Q97.63 839.04 97.63 846.33Q97.63 849.58 99.22 851.48Q100.82 853.38 103.58 853.38ZM609.81 853.38H610.73Q613.49 853.38 615.12 851.48Q616.74 849.58 616.74 846.39Q616.74 839.04 610.3 835.85Q603.87 839.04 603.87 846.33Q603.87 849.58 605.46 851.48Q607.05 853.38 609.81 853.38ZM391.33 841.98Q391.33 835.85 386.12 835.85Q383.05 835.85 381.31 838.12Q379.56 840.39 379.56 844.31Q379.56 848.17 381.25 850.47Q382.93 852.77 385.81 852.77Q389.86 852.77 391.33 850.5ZM-92.47 841.98Q-92.47 835.85 -97.68 835.85Q-100.74 835.85 -102.49 838.12Q-104.24 840.39 -104.24 844.31Q-104.24 848.17 -102.55 850.47Q-100.87 852.77 -97.99 852.77Q-93.94 852.77 -92.47 850.5ZM434.61 838.79Q432.34 836.28 429.03 836.28Q426.33 836.28 424.62 838.46Q422.9 840.63 422.9 844.13Q422.9 847.68 424.62 849.83Q426.33 851.97 429.09 851.97Q432.53 851.97 434.73 849.15Q434.61 848.05 434.61 847.44ZM-167.26 838.79Q-169.53 836.28 -172.84 836.28Q-175.53 836.28 -177.25 838.46Q-178.97 840.63 -178.97 844.13Q-178.97 847.68 -177.25 849.83Q-175.53 851.97 -172.78 851.97Q-169.34 851.97 -167.14 849.15Q-167.26 848.05 -167.26 847.44ZM165.55 853.38Q168.56 853.38 169.88 851.88Q171.19 850.38 171.19 847.01V844.25Q171.19 839.16 167.94 836.34Q165.31 834.01 161.63 834.01Q157.4 834.01 155.01 836.77H155.19Q159.24 836.77 161.66 839.38Q164.08 841.98 164.08 846.27Q164.08 850.38 161.69 853.38ZM155.19 852.83Q160.22 851.11 160.22 845.97Q160.22 843.39 158.84 841.83Q157.46 840.26 155.19 840.26Q152.93 840.26 151.55 841.83Q150.17 843.39 150.17 845.97Q150.17 851.11 155.19 852.83ZM37.12 866.62Q35.78 865.58 34.55 865.58Q32.28 865.58 32.28 867.6Q32.28 868.65 33.14 869.69H38.72L37.31 872.33H27.19L28.6 869.69H30.26Q29.65 868.59 29.65 867.36Q29.65 865.58 30.99 864.26Q32.34 862.95 34.18 862.95Q35.71 862.95 37.12 863.93ZM239.85 819.48 238.44 822.12H228.33L229.74 819.48H231.39Q230.78 818.38 230.78 817.15Q230.78 815.38 232.13 814.06Q233.48 812.74 235.32 812.74Q236.85 812.74 238.26 813.72V816.42Q236.91 815.38 235.68 815.38Q233.42 815.38 233.42 817.4Q233.42 818.44 234.27 819.48ZM606.01 823.71Q603.01 823.71 603.01 820.65Q603.01 817.64 606.01 817.64Q608.95 817.64 608.95 820.65Q608.95 823.71 606.01 823.71ZM683.25 864.48Q686.2 864.48 686.2 867.48Q686.2 870.55 683.25 870.55Q680.25 870.55 680.25 867.48Q680.25 864.48 683.25 864.48ZM99.78 823.71Q96.77 823.71 96.77 820.65Q96.77 817.64 99.78 817.64Q102.72 817.64 102.72 820.65Q102.72 823.71 99.78 823.71ZM426.7 823.71Q423.7 823.71 423.7 820.65Q423.7 817.64 426.7 817.64Q429.64 817.64 429.64 820.65Q429.64 823.71 426.7 823.71ZM434.49 823.71Q431.48 823.71 431.48 820.65Q431.48 817.64 434.49 817.64Q437.43 817.64 437.43 820.65Q437.43 823.71 434.49 823.71ZM130.86 824.33Q127.85 824.33 127.85 821.26Q127.85 818.26 130.86 818.26Q133.8 818.26 133.8 821.26Q133.8 824.33 130.86 824.33ZM334.87 864.48Q337.81 864.48 337.81 867.54Q337.81 870.55 334.87 870.55Q331.87 870.55 331.87 867.54Q331.87 864.48 334.87 864.48ZM342.66 864.48Q345.6 864.48 345.6 867.54Q345.6 870.55 342.66 870.55Q339.65 870.55 339.65 867.54Q339.65 864.48 342.66 864.48ZM200.8 870.55Q197.8 870.55 197.8 867.48Q197.8 864.48 200.8 864.48Q203.74 864.48 203.74 867.48Q203.74 870.55 200.8 870.55ZM-148.93 864.48Q-145.99 864.48 -145.99 867.54Q-145.99 870.55 -148.93 870.55Q-151.93 870.55 -151.93 867.54Q-151.93 864.48 -148.93 864.48ZM-121.4 824.33Q-124.41 824.33 -124.41 821.26Q-124.41 818.26 -121.4 818.26Q-118.46 818.26 -118.46 821.26Q-118.46 824.33 -121.4 824.33ZM-167.38 823.71Q-170.38 823.71 -170.38 820.65Q-170.38 817.64 -167.38 817.64Q-164.44 817.64 -164.44 820.65Q-164.44 823.71 -167.38 823.71ZM-175.17 823.71Q-178.17 823.71 -178.17 820.65Q-178.17 817.64 -175.17 817.64Q-172.22 817.64 -172.22 820.65Q-172.22 823.71 -175.17 823.71ZM-50.48 824.75Q-53.48 824.75 -53.48 821.69Q-53.48 818.69 -50.48 818.69Q-47.53 818.69 -47.53 821.69Q-47.53 824.75 -50.48 824.75ZM-42.63 824.75Q-45.63 824.75 -45.63 821.69Q-45.63 818.69 -42.63 818.69Q-39.69 818.69 -39.69 821.69Q-39.69 824.75 -42.63 824.75ZM-141.14 864.48Q-138.2 864.48 -138.2 867.54Q-138.2 870.55 -141.14 870.55Q-144.15 870.55 -144.15 867.54Q-144.15 864.48 -141.14 864.48ZM107.62 823.71Q104.62 823.71 104.62 820.65Q104.62 817.64 107.62 817.64Q110.57 817.64 110.57 820.65Q110.57 823.71 107.62 823.71ZM613.86 823.71Q610.86 823.71 610.86 820.65Q610.86 817.64 613.86 817.64Q616.8 817.64 616.8 820.65Q616.8 823.71 613.86 823.71ZM710.47 824.75Q707.47 824.75 707.47 821.69Q707.47 818.69 710.47 818.69Q713.41 818.69 713.41 821.69Q713.41 824.75 710.47 824.75ZM718.32 824.75Q715.31 824.75 715.31 821.69Q715.31 818.69 718.32 818.69Q721.26 818.69 721.26 821.69Q721.26 824.75 718.32 824.75ZM359.76 870.55Q356.76 870.55 356.76 867.48Q356.76 864.48 359.76 864.48Q362.7 864.48 362.7 867.48Q362.7 870.55 359.76 870.55Z"/></svg>